<?xml version="1.0" encoding="UTF-8" standalone="no"?>
<svg width="100px" height="11px" viewBox="0 0 100 11" version="1.1" xmlns="http://www.w3.org/2000/svg" xmlns:xlink="http://www.w3.org/1999/xlink" xmlns:sketch="http://www.bohemiancoding.com/sketch/ns">
    <!-- Generator: Sketch 3.3.3 (12072) - http://www.bohemiancoding.com/sketch -->
    <title>BECKLEY</title>
    <desc>Created with Sketch.</desc>
    <defs></defs>
    <g id="Laptop" stroke="none" stroke-width="1" fill="none" fill-rule="evenodd" sketch:type="MSPage">
        <g id="Home" sketch:type="MSArtboardGroup" transform="translate(-56.000000, -75.000000)" fill="#2C345E">
            <g id="Header" sketch:type="MSLayerGroup" transform="translate(56.000000, 72.000000)">
                <path d="M5.552,13 C7.229,13 9.27,12.636 9.27,10.465 C9.27,9.048 8.555,8.32 7.411,8.099 C8.49,7.852 8.919,7.033 8.919,5.915 C8.919,3.692 6.826,3.614 5.175,3.614 L0.625,3.614 C0.469,3.614 0.3,3.679 0.3,3.835 L0.3,12.779 C0.3,12.883 0.469,13 0.625,13 L5.552,13 Z M5.175,8.398 C6.761,8.398 8.594,8.411 8.594,10.439 C8.594,12.194 7.008,12.415 5.695,12.415 L0.976,12.415 L0.976,8.398 L5.175,8.398 Z M5.305,4.199 C6.644,4.199 8.243,4.303 8.243,5.915 C8.243,7.098 7.814,7.813 5.214,7.813 L0.976,7.813 L0.976,4.199 L5.305,4.199 Z M23.942,13 C24.163,13 24.28,12.857 24.28,12.714 C24.28,12.571 24.163,12.415 23.942,12.415 L17.26,12.415 L17.26,8.437 L23.37,8.437 C23.578,8.437 23.695,8.294 23.695,8.151 C23.695,7.995 23.578,7.852 23.37,7.852 L17.26,7.852 L17.26,4.199 L23.942,4.199 C24.163,4.186 24.28,4.043 24.28,3.9 C24.28,3.757 24.163,3.614 23.942,3.614 L16.909,3.614 C16.766,3.614 16.584,3.705 16.584,3.861 L16.584,12.753 C16.584,12.883 16.727,13 16.818,13 L23.942,13 Z M39.836,11.869 C39.901,11.817 39.927,11.752 39.927,11.687 C39.927,11.544 39.81,11.414 39.654,11.414 C39.589,11.414 39.511,11.44 39.446,11.492 C38.562,12.168 37.47,12.571 36.391,12.571 C33.817,12.571 31.75,10.673 31.75,8.307 C31.75,6.006 33.778,4.043 36.3,4.043 C37.379,4.043 38.549,4.433 39.472,5.122 C39.537,5.174 39.615,5.2 39.68,5.2 C39.836,5.2 39.953,5.07 39.953,4.927 C39.953,4.862 39.927,4.797 39.862,4.745 C38.822,3.939 37.561,3.458 36.261,3.458 C33.362,3.458 31.074,5.694 31.074,8.307 C31.074,10.946 33.388,13.156 36.274,13.156 C37.587,13.156 38.809,12.688 39.836,11.869 L39.836,11.869 Z M55.951,13.065 C56.016,13.13 56.081,13.156 56.146,13.156 C56.315,13.156 56.51,12.961 56.51,12.779 C56.51,12.727 56.484,12.662 56.419,12.597 L51.076,7.553 L55.561,4.212 C55.652,4.147 55.678,4.069 55.678,3.991 C55.678,3.835 55.522,3.614 55.327,3.614 C55.275,3.614 55.223,3.627 55.171,3.666 L47.761,9.178 L47.761,3.926 C47.761,3.718 47.592,3.614 47.423,3.614 C47.254,3.614 47.085,3.718 47.085,3.926 L47.085,12.818 C47.085,13.039 47.254,13.156 47.41,13.156 C47.592,13.156 47.761,13.039 47.761,12.818 L47.761,10.036 L50.517,7.969 L55.951,13.065 Z M70.038,13 C70.181,13 70.337,12.883 70.337,12.714 C70.337,12.532 70.181,12.415 70.038,12.415 L63.343,12.415 L63.343,3.848 C63.343,3.692 63.174,3.601 62.992,3.601 C62.836,3.601 62.667,3.679 62.667,3.848 L62.667,12.753 C62.667,12.935 62.849,13 62.992,13 L70.038,13 Z M84.593,13 C84.814,13 84.931,12.857 84.931,12.714 C84.931,12.571 84.814,12.415 84.593,12.415 L77.911,12.415 L77.911,8.437 L84.021,8.437 C84.229,8.437 84.346,8.294 84.346,8.151 C84.346,7.995 84.229,7.852 84.021,7.852 L77.911,7.852 L77.911,4.199 L84.593,4.199 C84.814,4.186 84.931,4.043 84.931,3.9 C84.931,3.757 84.814,3.614 84.593,3.614 L77.56,3.614 C77.417,3.614 77.235,3.705 77.235,3.861 L77.235,12.753 C77.235,12.883 77.378,13 77.469,13 L84.593,13 Z M94.754,12.818 C94.754,13.039 94.923,13.156 95.079,13.156 C95.261,13.156 95.43,13.039 95.43,12.818 L95.43,8.281 L99.226,4.069 C99.278,4.004 99.304,3.926 99.304,3.848 C99.304,3.666 99.122,3.497 98.94,3.497 C98.862,3.497 98.784,3.536 98.719,3.614 L95.092,7.644 L91.478,3.614 C91.413,3.536 91.322,3.497 91.244,3.497 C91.075,3.497 90.88,3.666 90.88,3.848 C90.88,3.926 90.906,4.004 90.971,4.069 L94.754,8.281 L94.754,12.818 Z" id="BECKLEY" sketch:type="MSShapeGroup"></path>
            </g>
        </g>
    </g>
</svg>