<svg xmlns="http://www.w3.org/2000/svg" width="1083" height="266" viewBox="0 0 1083 266" version="1.1"><title>THE BEST BONE IN TOW</title><g stroke="none" stroke-width="1" fill="none" fill-rule="evenodd"><g transform="translate(-94.000000, -222.000000)" stroke="#FFFFFF" stroke-width="4" fill="#FFFFFF" fill-opacity="0"><path d="M96.4 226L96.4 242.8 122.3 242.8 122.3 324 141.2 324 141.2 242.8 167.1 242.8 167.1 226 96.4 226ZM253.7 324L272.6 324 272.6 226 253.7 226 253.7 263.1 204.7 263.1 204.7 226 185.8 226 185.8 324 204.7 324 204.7 279.9 253.7 279.9 253.7 324ZM357.8 242.8L357.8 226 299 226 299 324 359.2 324 359.2 307.2 317.9 307.2 317.9 279.9 348 279.9 348 263.1 317.9 263.1 317.9 242.8 357.8 242.8ZM421.8 226L421.8 324 460.1 324C472.7 324 480.2 320.6 485.7 315.2 491.1 309.9 494.6 302.3 494.6 294 494.6 283.1 488.6 273.3 479.9 269 483.2 265.6 486.2 259 486.2 252.6 486.2 244.6 482.6 237.6 477.1 232.9 472.4 228.7 466.2 226 455.2 226L421.8 226ZM440.7 242.8L454 242.8C459.9 242.8 462.6 244.2 464.5 246.3 466.2 248.1 467.3 250.6 467.3 253.3 467.3 256 466.2 258.5 464.5 260.3 462.6 262.4 459.9 263.8 454 263.8L440.7 263.8 440.7 242.8ZM440.7 307.2L440.7 280.6 459.6 280.6C466.2 280.6 469.9 282.3 472.2 284.9 474.5 287.3 475.7 290.4 475.7 293.9 475.7 297.4 474.5 300.5 472.2 302.9 469.9 305.5 466.2 307.2 459.6 307.2L440.7 307.2ZM572.1 242.8L572.1 226 513.3 226 513.3 324 573.5 324 573.5 307.2 532.2 307.2 532.2 279.9 562.3 279.9 562.3 263.1 532.2 263.1 532.2 242.8 572.1 242.8ZM586.6 310.7C596.7 319.9 608.9 325.4 622.1 325.4 639.7 325.4 655.2 313.4 655.2 296 655.2 263 610 267.9 610 252 610 244.5 618 241.4 625.1 241.4 631.6 241.4 638.2 244.2 642.1 247.8L651.9 233.8C642.6 227 633.4 224.6 623.5 224.6 607.2 224.6 591.1 234.7 591.1 252.2 591.1 263.2 597.3 270 605 274.4 618.1 282.1 636.3 283.7 636.3 296.3 636.3 303.4 630.5 308.6 622.1 308.6 613.1 308.6 604.6 304 599 297.8L586.6 310.7ZM664.1 226L664.1 242.8 690 242.8 690 324 708.9 324 708.9 242.8 734.8 242.8 734.8 226 664.1 226ZM792.5 226L792.5 324 830.8 324C843.4 324 850.9 320.6 856.4 315.2 861.8 309.9 865.3 302.3 865.3 294 865.3 283.1 859.3 273.3 850.6 269 853.9 265.6 856.9 259 856.9 252.6 856.9 244.6 853.3 237.6 847.8 232.9 843.1 228.7 836.9 226 825.9 226L792.5 226ZM811.4 242.8L824.7 242.8C830.6 242.8 833.3 244.2 835.2 246.3 836.9 248.1 838 250.6 838 253.3 838 256 836.9 258.5 835.2 260.3 833.3 262.4 830.6 263.8 824.7 263.8L811.4 263.8 811.4 242.8ZM811.4 307.2L811.4 280.6 830.3 280.6C836.9 280.6 840.6 282.3 842.9 284.9 845.2 287.3 846.4 290.4 846.4 293.9 846.4 297.4 845.2 300.5 842.9 302.9 840.6 305.5 836.9 307.2 830.3 307.2L811.4 307.2ZM898 275C898 256.5 911.8 241.4 930.2 241.4 948.7 241.4 962.4 256.5 962.4 275 962.4 293.5 948.7 308.6 930.2 308.6 911.8 308.6 898 293.5 898 275L898 275ZM879.1 275C879.1 302.9 900 325.4 930.2 325.4 960.5 325.4 981.3 302.9 981.3 275 981.3 247.1 960.5 224.6 930.2 224.6 900 224.6 879.1 247.1 879.1 275L879.1 275ZM1000.7 324L1019.6 324 1019.6 260.2 1074.2 324 1087.5 324 1087.5 226 1068.6 226 1068.6 289.8 1014 226 1000.7 226 1000.7 324ZM1172.7 242.8L1172.7 226 1113.9 226 1113.9 324 1174.1 324 1174.1 307.2 1132.8 307.2 1132.8 279.9 1162.9 279.9 1162.9 263.1 1132.8 263.1 1132.8 242.8 1172.7 242.8ZM302.2 484L321.1 484 321.1 386 302.2 386 302.2 484ZM347.5 484L366.4 484 366.4 420.2 421 484 434.3 484 434.3 386 415.4 386 415.4 449.8 360.8 386 347.5 386 347.5 484ZM492 386L492 402.8 517.9 402.8 517.9 484 536.8 484 536.8 402.8 562.7 402.8 562.7 386 492 386ZM591.2 435C591.2 416.5 605 401.4 623.4 401.4 641.9 401.4 655.6 416.5 655.6 435 655.6 453.5 641.9 468.6 623.4 468.6 605 468.6 591.2 453.5 591.2 435L591.2 435ZM572.3 435C572.3 462.9 593.2 485.4 623.4 485.4 653.7 485.4 674.5 462.9 674.5 435 674.5 407.1 653.7 384.6 623.4 384.6 593.2 384.6 572.3 407.1 572.3 435L572.3 435ZM715.9 484L729.2 484 750.9 422 772.8 484 786.1 484 818.5 386 799.5 386 779.2 447.2 757.6 386 744.3 386 722.8 447.2 702.5 386 683.4 386 715.9 484ZM835.1 484L854 484 854 420.2 908.6 484 921.9 484 921.9 386 903 386 903 449.8 848.4 386 835.1 386 835.1 484ZM952.5 473.2C952.5 480.1 957.9 485.4 964.7 485.4 971.6 485.4 977 480.1 977 473.2 977 466.4 971.6 460.9 964.7 460.9 957.9 460.9 952.5 466.4 952.5 473.2L952.5 473.2Z"/></g></g></svg>