<svg xmlns="http://www.w3.org/2000/svg" viewBox="0 0 356.6 139.4"><g fill="#ffffff"><path d="M350.7 47.4c-3.9-.4-5.8 1.8-7.5 3.7-1.4 1.7-2.8 3.3-5.8 3.6-3.1.4-5.4-.7-6.9-3.3-2-3.4-2.2-8.8-.8-13.5.1-.2.2-.5.2-.7l.2-.7c.5-1.3 1.1-2.5 1.8-3.6 1.7-2.6 4.7-5.4 9.5-4.6 1.6.3 2.5 1.3 2.9 2 .7 1.2.9 2.7.4 4.1-.5 1.7-2.2 3.2-4 3.6-1.2.3-3 .2-4.6-1.7l-2.6 2.4c2.2 2.5 5 3.5 8 2.8 3.1-.7 5.7-3.2 6.6-6.1.7-2.4.4-5-.8-7.1-1.2-2-3.1-3.3-5.3-3.7-5.2-.9-9.8 1.2-13 6.1-.8 1.3-1.5 2.7-2.1 4.2l-.2.6c-.1.3-.2.6-.3.8-6 18.2-10.1 21-12.1 21-1.4 0-1.7-.5-1.8-.6-1.2-1.6.2-6.7 1.3-10.7 1.5-5.6 2.9-10.8.9-14.1-.8-1.3-2-2.2-3.7-2.5-5.1-1-9.6 4.4-12.7 9.8.2-4.4-.4-7.3-4.2-7.9-3.5-.6-5.6 2.6-7.6 5.7-1.5 2.3-3 4.6-5.1 5.9-.4-6.1-2.7-10-6.2-10.3-2.2-.2-4.1.7-5.2 2.5-1.4 2.2-1.5 5.4-.1 8.1 1.4 2.8 4 4.5 7.2 4.6h.8c-.7 6.7-3.7 14.4-9.5 15-2.8.3-4.9-.8-6.2-3.4-2.5-4.8-1.7-14.7 4.1-22.2l-1.4-1.1-1-1.5c-2.3 1.5-4.4 3.6-6.4 5.7-3 3-6.1 6.1-9.7 7.3v-.4c-.4-6.6-3.1-10.6-6.9-10.4-2.1.1-3.9 1.3-4.9 3.4-1.2 2.6-1 5.7.6 8.1 1 1.4 3.1 3.6 7.5 3.6-.7 6.9-4 14.5-10 15.1-2.8.3-6.6-.2-7.4-7.8-1.9-18.4 15.5-55 22.2-55.9 1-.1 1.5.2 1.8 1.2 1.6 5.6-4.9 20.7-13.8 25.1l1.5 3.3c9.9-5 17.8-21.8 15.6-29.4-.8-2.7-2.9-4.2-5.6-3.8-10.2 1.3-27.1 41.5-25.2 59.9.7 7.2 4.2 11.1 9.9 11.1.4 0 .9 0 1.3-.1 8.5-.8 12.5-10.7 13.2-19.1 4.3-1.1 7.8-4.2 11-7.4-2 6.2-2.1 12.7.3 17.1 1.8 3.4 4.8 5.3 8.5 5.3.4 0 .8 0 1.2-.1 7.7-.8 12.1-10.2 12.7-19.4 3.8-1.6 6.2-5.1 8-8 1.8-2.7 3-4.4 4.2-4.2 1.4.2 1.6.9.9 8.2l-.1 1.4c-.5 5.9-4.1 16.7-4.1 16.8l3.3 1.2c.1-.3 2.2-6.7 3.4-12.5h.1c2.2-6 8.4-18.1 13.3-17.1.9.2 1.2.5 1.4.8 1.2 1.9-.2 7.1-1.3 11.2-1.5 5.6-2.9 10.9-.7 13.9 1 1.4 2.6 2 4.6 2 4.6 0 8.3-5.7 11.4-12.7.4 1.8.9 3.4 1.7 4.8 2.2 3.8 5.9 5.6 10.3 5 4.3-.5 6.4-2.9 8-4.8 1.6-1.8 2.5-2.7 4.5-2.5.6.1 2.8.4 2.8 2.3 0 2.6-4.8 9.9-26.9 12.7-29.2 3.6-106.1 13-106.1 13l.4 3.6s76.9-9.4 106.1-13c22.2-2.8 30-10.5 30-16.3.1-2.6-2.3-5-5.8-5.4zm-111.2-.9c-1-1.5-.9-3.2-.3-4.4.3-.6.9-1.3 1.9-1.4 1.6 0 2.9 2.9 3.2 7v.8c-2.2 0-3.9-.6-4.8-2zm37.6-2c-2.5-.1-3.7-1.7-4.2-2.6-.7-1.5-.8-3.3-.1-4.4.4-.6.9-.9 1.7-.9h.3c1.7.1 2.9 3.4 3 7.9h-.7zM213 75l3.7-18.3c.3-1.4.5-2.3.5-2.6l2.4-12.2-3.4-.7-2.9 14.5c-1.1 4.6-4.1 14.8-10.8 15.6-2.8.4-4.9-.4-6.2-2.3-2.3-3.3-2.1-9.8.4-15.5 2-4.3 4.9-7.1 7.8-7.3 1.4-.1 2.4.2 3 .8.7.8.7 2.2.6 2.7l3.5.6c.1-.3.5-3.5-1.4-5.7-1.3-1.5-3.3-2.2-5.8-2-4.3.3-8.2 3.7-10.8 9.4-.6 1.4-1.1 2.9-1.6 4.5-.2.6-.4 1.4-.7 2.3-1.4 5-4.4 15.3-10.1 15.3-1.4 0-1.7-.5-1.8-.6-1.2-1.6.2-6.6 1.3-10.7 1.5-5.6 2.9-10.8.9-14.1-.8-1.3-2-2.2-3.7-2.5-5.1-1-9.5 3.9-12.6 8.7-.1-2.3-.6-4.1-1.7-5.3-1-1.1-2.5-1.5-4.3-1.3-5 .6-8.3 8.7-11.9 17.2-2.4 5.7-5.7 13.5-8.1 13.8-1.3.2-1.9-.3-2.3-.8-2.5-3.2-.7-14.3 1.6-22.5.5-1.6.9-2.9 1.1-3.8l-1.7-.5-1.7-.6c-.2.5-.6 1.8-1 3.5-3.8 12.4-10.6 27.4-15.6 26.9-.8-.1-1.3-.4-1.6-1.1-2.4-4.3 2-18.3 5.3-26.1l-2.6-2.3c-.1 0-6.9 4.5-12.9 6.4 1-4.9-1.6-7.8-4.4-8.4-2.7-.6-6 .8-6.8 4.2-.5 2.2.2 4.5 1.9 6.1 1.2 1.2 2.8 2 4.7 2.2l-.7 2.9C98.4 81.3 94 85 91.1 85.4c-1.4.2-2.6-.2-3.7-.8 2.1-3.3 3.4-7.5 3.9-11.4.9-8-1.5-14.1-6.4-16-2.2-.9-4.5-.7-6.7.3-2.4 1.2-4.5 3.4-6.3 5.9l1.4-6.5-3.4-.8-14.6 68.1 3.4.8L69 76.8c1.3-3.7 5.6-13.5 10.7-16 1.4-.7 2.7-.7 4-.2 3.9 1.5 4.6 7.5 4.1 12.1-.4 3.4-1.5 7-3.2 9.7-2.1-1.7-4.6-3.7-7.9-3.3-2.7.3-4.8 1.8-5.7 4-.8 1.8-.5 3.9.6 5.4.7 1 2.3 2.5 5.5 2.5.4 0 .9 0 1.4-.1 2.6-.3 4.9-1.6 6.7-3.6 1.7 1.1 3.8 1.9 6.3 1.6 7.9-1 12-13.4 14.3-22.6l.9-3.6c0-.1.1-.2.1-.3l1.5-.3c3.4-1 7.1-2.8 9.9-4.3-2.5 7-6.1 19.1-3.2 24.4.9 1.7 2.4 2.6 4.3 2.9 5 .6 9.6-5.6 13.1-12.9 0 3.5.5 6.6 2 8.5.8 1 2.2 2.1 4.5 2.1.3 0 .6 0 .9-.1 4.4-.5 7.4-7.7 10.9-16 2.7-6.5 6.2-14.7 9.1-15 1-.1 1.3.2 1.3.3.9.9 1 4 .3 9.1-.5 4-4.5 16.8-4.6 16.9l3.3 1.1c.1-.5 2.9-9.4 4.2-14.9 1.7-4.3 7.6-15.7 12.8-14.7.9.2 1.2.5 1.4.8 1.2 1.9-.2 7.1-1.3 11.2-1.5 5.6-2.9 10.9-.7 13.9 1 1.4 2.5 2 4.6 2 5.3 0 8.5-4.7 10.7-9.7.4 1.1.9 2.2 1.5 3.2 1.3 1.8 3.6 3.9 7.7 3.9.5 0 1.1 0 1.7-.1 3-.4 5.5-2 7.4-4.2l-.7 3.7c-1.5 8.4-7.6 30.4-17.6 31.6-4 .5-7.1-1.5-7.7-5.1-1-5.3 3.3-12.3 14.8-15.4l-.9-3.5c-13.7 3.7-18.6 12.7-17.4 19.6.9 5 4.9 8.2 10 8.2.5 0 1 0 1.6-.1C207 107.7 212.7 76.3 213 75zM78 87.4c-1.7.2-3.1-.1-3.7-.9-.4-.5-.4-1.1-.1-1.8.4-1 1.5-1.7 2.9-1.9h.5c1.5 0 2.9 1 4.7 2.5-1.3 1.1-2.7 1.9-4.3 2.1zm26.4-29.6c0 .2-.1.6-.3 1.3-1.3-.1-2.4-.5-3.2-1.3-.8-.8-1.1-1.8-.9-2.7.3-1.2 1.2-1.6 2.1-1.6.2 0 .4 0 .5.1 1.6.4 2.3 1.9 1.8 4.2z"/><path d="M177.3 84.4L70.4 97.5l.4 3.7L177.7 88"/><ellipse transform="rotate(82.97 140.487 41.61)" cx="140.5" cy="41.6" rx="2.8" ry="2.8"/><path d="M67.9 17.7s4-.8 6.2 1.5c1.8 1.9 2.3 5.7 1.2 10.9l3.4.7c1.3-6.6.6-11.3-2.2-14.2-3.6-3.7-9.2-2.5-9.4-2.5C54.6 17 54.5 34.4 54.4 52.7c-.1 22.6-.2 45.9-20 50.6C17 107.6 6.6 98.1 4.1 86.8 1.9 76.8 5.9 65.2 18 62.3 35.6 58 40.6 75.4 40.8 76.2l3.4-1c-.1-.2-6.1-21.5-27-16.4C2.9 62.2-1.9 75.9.7 87.6 3.1 98.2 12 108 26.5 108c2.7 0 5.6-.3 8.8-1.1 22.5-5.4 22.6-31.3 22.7-54.2 0-17.6.1-32.8 9.9-35zm69.7 101.6l-6.5 3.2 1.8-4.9-2.3-.9L126 129l2.4.9 2.2-6.1 3.2 8.1 3.1 1.2-3.7-9 7.6-3.7m6.3 15.1l-2.43-.55 2.97-12.86 2.43.53zm9.5-9.2l3.5.5-1.4 10.8 2.5.4 1.4-10.9 3.5.5.3-2.3-9.5-1.2m22.3 13c-2.5-.1-4.5-2-4.4-4.6.1-2.5 2-4.5 4.5-4.4 1.3 0 2.4.6 3.2 1.4l1.7-1.7c-1.2-1.2-2.8-1.9-4.8-2-4.1-.1-7 2.9-7.1 6.6-.1 3.8 2.7 6.8 6.9 6.9 2.4 0 4.4-.9 5.6-2.4l-1.7-1.6c-.9 1-2.2 1.8-3.9 1.8zm21.5-12.2l.6 5-6.6.6-.5-4.9-2.5.2 1.3 13.1 2.5-.2-.6-5.9 6.6-.7.6 5.9 2.5-.2-1.3-13.2m12.6 8.7l-.8-3.5 4-1-.5-2.2-4 1-.6-2.7 5.2-1.2-.5-2.2-7.7 1.8 3 12.8 7.9-1.8-.5-2.2m12.6-16l3.2 8-10-5.2-1.7.7 5 12.2 2.3-1-3.2-7.9 10 5.2 1.7-.7-4.9-12.2"/></g></svg>