<?xml version="1.0" encoding="UTF-8" standalone="no"?>
<svg width="161px" height="60px" viewBox="0 0 161 60" version="1.1" xmlns="http://www.w3.org/2000/svg" xmlns:xlink="http://www.w3.org/1999/xlink" xmlns:sketch="http://www.bohemiancoding.com/sketch/ns">
    <!-- Generator: Sketch 3.3.3 (12072) - http://www.bohemiancoding.com/sketch -->
    <title>springbone-logo</title>
    <desc>Created with Sketch.</desc>
    <defs></defs>
    <g id="Page-1" stroke="none" stroke-width="1" fill="none" fill-rule="evenodd" sketch:type="MSPage">
        <g id="Springbone-Placeholder-Site" sketch:type="MSArtboardGroup" transform="translate(-560.000000, -40.000000)" fill="#ffffff">
            <g id="springbone-logo" sketch:type="MSLayerGroup" transform="translate(560.000000, 40.000000)">
                <path d="M160.567675,20.7352632 C160.066728,20.0573684 159.187562,19.7171053 158.217603,19.8252632 C157.24738,19.9334211 156.55033,20.4460526 155.876241,20.9418421 C155.032179,21.5628947 154.159348,22.205 152.470167,22.3931579 C151.07633,22.5478947 150.042498,22.0886842 149.397443,21.0265789 C148.610918,19.7307895 148.537016,17.7218421 149.093654,15.9321053 C149.118728,15.8626316 149.14301,15.7944737 149.165708,15.7305263 C149.227205,15.5581579 149.28052,15.4086842 149.326444,15.2834211 C149.501697,14.8594737 149.713108,14.4552632 149.96279,14.0857895 C150.706821,12.9860526 152.056582,11.7489474 154.272048,12.1065789 C154.760062,12.1855263 155.113998,12.4 155.323298,12.7442105 C155.571397,13.1518421 155.605708,13.7368421 155.415411,14.3094737 C155.253884,14.7955263 154.780385,15.2442105 154.14879,15.5097368 C153.125516,15.94 151.836989,15.8465789 150.613652,15.2531579 C150.146225,15.0268421 149.582989,15.2207895 149.355477,15.6868421 C149.12823,16.1528947 149.322749,16.7147368 149.790441,16.9415789 C151.501792,17.7713158 153.356987,17.88 154.880416,17.2394737 C156.021669,16.7597368 156.867843,15.9068421 157.202511,14.9 C157.569644,13.7957895 157.471461,12.6552632 156.933298,11.7705263 C156.438949,10.9581579 155.60043,10.4192105 154.572405,10.2534211 C152.115967,9.85736842 149.86619,10.8715789 148.401882,13.0363158 C147.905157,13.7705263 147.528523,14.5928947 147.267228,15.4476316 C145.933303,19.1234211 144.010805,23.3710526 142.194936,23.5731579 C141.767626,23.6207895 141.584192,23.5497368 141.546713,23.5057895 C141.165064,23.055 141.80009,20.8410526 142.179628,19.5178947 C142.8714,17.1073684 143.524638,14.8307895 142.60377,13.355 C142.339044,12.9313158 141.814607,12.3884211 140.817726,12.2086842 C138.953557,11.8723684 137.061675,12.9997368 135.195659,15.5576316 C135.167682,14.7536842 135.010113,14.1626316 134.620282,13.7021053 C134.260539,13.2765789 133.745075,13.0371053 133.08867,12.99 C131.432218,12.8713158 130.481526,14.2205263 129.557228,15.5247368 C128.950443,16.3802632 128.364772,17.2068421 127.603849,17.7165789 C127.375282,15.32 126.387639,13.7626316 124.897466,13.5528947 C123.870233,13.4078947 122.97312,13.7581579 122.437597,14.5128947 C121.783303,15.4357895 121.765356,16.8073684 122.391936,18.0071053 C123.045438,19.2576316 124.26719,20.0281579 125.693492,20.1026316 C125.39551,22.5623684 124.217043,25.5392105 121.689079,25.8205263 C120.777977,25.9221053 120.098874,25.7128947 119.614026,25.1810526 C118.792398,24.2797368 118.529256,22.4242105 118.943369,20.4542105 C119.221556,19.1313158 120.048198,17.8481579 120.733372,16.9634211 C121.136136,16.5478947 121.511451,16.1213158 121.842161,15.6871053 C121.847439,15.6802632 121.850343,15.6723684 121.855621,15.6652632 C121.87568,15.6373684 121.892044,15.6081579 121.908672,15.5786842 C121.922925,15.5534211 121.937969,15.5289474 121.949582,15.5028947 C121.962515,15.4742105 121.972016,15.4447368 121.981782,15.415 C121.991284,15.3863158 122.001841,15.3581579 122.008439,15.3289474 C122.015038,15.3 122.017941,15.2710526 122.0219,15.2418421 C122.025859,15.2113158 122.03061,15.1810526 122.031666,15.1502632 C122.032721,15.1205263 122.029818,15.0913158 122.02797,15.0618421 C122.026123,15.0315789 122.025067,15.0015789 122.020316,14.9718421 C122.01583,14.9421053 122.00712,14.9131579 121.99973,14.8839474 C121.992075,14.8547368 121.985477,14.8257895 121.975184,14.7976316 C121.96489,14.77 121.95143,14.7436842 121.938497,14.7168421 C121.924772,14.6881579 121.911575,14.6594737 121.894948,14.6321053 C121.880431,14.6081579 121.862748,14.5860526 121.845592,14.5634211 C121.825269,14.5357895 121.804946,14.5081579 121.781192,14.4826316 C121.775385,14.4765789 121.771426,14.4694737 121.76562,14.4634211 C121.74952,14.4471053 121.73078,14.4352632 121.713889,14.4202632 C121.695941,14.4044737 121.681161,14.3865789 121.661893,14.3721053 C121.654767,14.3665789 121.646849,14.3636842 121.639723,14.3584211 C121.612274,14.3386842 121.583505,14.3228947 121.554472,14.3065789 C121.52887,14.2921053 121.503797,14.2765789 121.477139,14.2647368 C121.44837,14.2518421 121.41881,14.2426316 121.389249,14.2328947 C121.36048,14.2234211 121.332239,14.2131579 121.302943,14.2063158 C121.273646,14.1997368 121.244085,14.1965789 121.214525,14.1928947 C121.184172,14.1889474 121.154348,14.1842105 121.123995,14.1831579 C121.093643,14.1821053 121.063554,14.185 121.033202,14.1868421 C121.003905,14.1886842 120.974344,14.1897368 120.945048,14.1942105 C120.914695,14.1989474 120.885134,14.2076316 120.855046,14.2155263 C120.826541,14.2228947 120.798036,14.2294737 120.770059,14.2394737 C120.741818,14.2497368 120.714897,14.2634211 120.687711,14.2765789 C120.65947,14.29 120.63123,14.3028947 120.604044,14.3192105 C120.579498,14.3342105 120.5568,14.3521053 120.533574,14.3694737 C120.506389,14.3894737 120.479467,14.4092105 120.454393,14.4323684 C120.448059,14.4384211 120.440669,14.4423684 120.434334,14.4484211 C120.387882,14.4936842 119.897756,14.9771053 119.300472,15.7405263 C117.591497,17.4668421 115.224797,18.9931579 113.309952,19.5981579 C113.299659,19.4252632 113.285143,19.2536842 113.266139,19.0842105 C112.923289,16.0223684 111.341266,15.0944737 109.981475,15.2455263 C108.504498,15.41 107.459318,16.9371053 107.650934,18.6494737 C107.824075,20.1963158 109.026033,21.6410526 111.332028,21.7528947 C110.929264,24.4576316 109.464956,27.2176316 106.986084,27.4936842 C105.861723,27.6192105 104.531757,27.4139474 104.227177,24.6960526 C103.874825,21.55 105.179189,16.0665789 107.550375,10.7263158 C109.983587,5.24552632 112.552989,2.14842105 113.734887,2.01657895 C114.218943,1.96263158 114.263811,2.12815789 114.322141,2.33763158 C114.859775,4.28578947 111.792593,10.6407895 107.714543,12.4857895 C107.241308,12.7 107.03148,13.2563158 107.246587,13.7284211 C107.461166,14.2005263 108.019387,14.4092105 108.492885,14.1952632 C113.143938,12.0907895 117.019287,5.03421053 116.137218,1.83947368 C115.805189,0.636842105 114.82652,0.00631578947 113.526115,0.151052632 C110.266261,0.513947368 106.810303,7.75552632 105.828467,9.96631579 C103.842097,14.4405263 101.886607,20.7142105 102.356146,24.9044737 C102.679202,27.7902632 104.199728,29.3952632 106.564844,29.3952632 C106.768338,29.3952632 106.978957,29.3831579 107.19512,29.3592105 C109.313193,29.1234211 111.092111,27.6986842 112.204067,25.3478947 C112.748828,24.1965789 113.108834,22.8763158 113.255318,21.56 C114.469944,21.2665789 115.832638,20.6476316 117.157061,19.8263158 C117.137002,19.9071053 117.117998,19.9878947 117.100843,20.0689474 C116.550275,22.6873684 116.968875,25.0702632 118.220716,26.4436842 C118.772603,27.0489474 119.732005,27.7223684 121.267839,27.7223684 C121.467638,27.7223684 121.67773,27.7107895 121.897851,27.6863158 C125.510321,27.2839474 127.341234,23.4618421 127.617574,19.8078947 C129.265052,19.1892105 130.293605,17.7384211 131.094646,16.6078947 C131.882754,15.4957895 132.403497,14.8226316 132.954064,14.8626316 C133.12958,14.8752632 133.179728,14.9107895 133.179992,14.9110526 C133.448677,15.1539474 133.26973,16.9765789 133.125885,18.4413158 L133.11612,18.5405263 C133.090254,18.8055263 133.051192,19.0942105 133.00342,19.3960526 C133.001836,19.4036842 133.001308,19.4113158 132.999989,19.4186842 C132.609366,21.8697368 131.608526,25.2565789 131.597441,25.2947368 C131.449638,25.7918421 131.734159,26.3142105 132.232731,26.4613158 C132.731303,26.6086842 133.254949,26.3247368 133.402489,25.8278947 C133.449469,25.67 134.40887,22.4236842 134.833805,19.8692105 C135.018559,19.4734211 135.712443,18.0431579 136.707739,16.6757895 C137.500598,15.5860526 139.045407,13.7968421 140.483057,14.0560526 C140.823005,14.1173684 140.94072,14.2436842 141.00512,14.3468421 C141.484689,15.1152632 140.840161,17.3615789 140.369566,19.0015789 C139.676738,21.4163158 139.078398,23.5018421 140.109062,24.7173684 C140.53083,25.2152632 141.143157,25.4660526 141.933905,25.4660526 C142.084084,25.4660526 142.240597,25.4568421 142.403708,25.4386842 C143.972798,25.2639474 145.434203,23.8694737 146.871326,21.1757895 C146.973997,20.9828947 147.0735,20.7873684 147.17142,20.5913158 C147.32371,21.095 147.526675,21.5702632 147.786915,21.9986842 C148.815467,23.6928947 150.555587,24.4955263 152.678939,24.2589474 C154.870651,24.015 156.097946,23.1118421 156.994003,22.4523684 C157.610026,21.9994737 157.980062,21.7405263 158.426375,21.6910526 C158.716703,21.6586842 158.956092,21.7192105 159.051636,21.8484211 C159.145861,21.9760526 159.129233,22.2181579 159.007295,22.4963158 C158.323441,24.0547368 154.877513,26.1692105 147.416087,27 L100.647434,32.2076316 C100.130651,32.2652632 99.7585033,32.7294737 99.8163049,33.2447368 C99.8698836,33.7244737 100.277398,34.0792105 100.750633,34.0792105 C100.785472,34.0792105 100.820839,34.0773684 100.856207,34.0734211 L147.625123,28.8657895 C157.724046,27.7413158 160.15541,24.5628947 160.73237,23.2486842 C161.133023,22.3352632 161.072846,21.4192105 160.567675,20.7352632 L160.567675,20.7352632 Z M109.52223,18.4410526 C109.449384,17.7921053 109.767952,17.1581579 110.190248,17.1110526 C110.210834,17.1089474 110.231157,17.1078947 110.250952,17.1078947 C110.871462,17.1078947 111.271323,18.1897368 111.394844,19.2926316 C111.416223,19.4828947 111.431003,19.6789474 111.438921,19.8786842 C110.320631,19.8286842 109.620149,19.3168421 109.52223,18.4410526 L109.52223,18.4410526 Z M124.061849,17.14 C123.736418,16.5171053 123.774161,15.88 123.975015,15.5968421 C124.016452,15.5381579 124.116748,15.3971053 124.439539,15.3971053 C124.497077,15.3971053 124.561741,15.4015789 124.634059,15.4115789 C125.071398,15.4731579 125.64308,16.4723684 125.753141,18.2260526 C124.746759,18.1615789 124.264287,17.5271053 124.061849,17.14 L124.061849,17.14 Z" id="Fill-1" sketch:type="MSShapeGroup"></path>
                <path d="M97.8162098,30.8563158 L99.6663902,22.5831579 C99.6922557,22.4734211 99.7075639,22.4007895 99.7138984,22.3707895 L100.820839,17.4207895 C100.934067,16.915 100.614443,16.4131579 100.106897,16.3005263 C99.598823,16.1873684 99.0960279,16.5063158 98.9833279,17.0123684 L97.8626623,22.0234211 C97.7462672,22.5323684 96.2560934,28.6881579 92.635177,29.0915789 C90.6736164,29.31 89.5701066,28.4623684 89.3581672,26.5713158 C89.0374869,23.7078947 91.097759,19.5944737 93.6441984,19.3110526 C94.3626279,19.2310526 94.8817869,19.3505263 95.1879508,19.6663158 C95.702359,20.1963158 95.678341,21.255 95.6255541,21.6192105 C95.5482213,22.13 95.9000459,22.6076316 96.4128705,22.6865789 C96.9249033,22.7663158 97.4073754,22.4144737 97.4868197,21.9021053 C97.521659,21.6765789 97.7921918,19.6618421 96.5503803,18.3707895 C96.0465295,17.8463158 95.0961016,17.26 93.4351623,17.4452632 C90.9573459,17.7213158 88.9514443,20.0607895 88.014741,22.7313158 C86.3614557,27.0994737 84.2729426,30.0226316 82.6632066,30.2018421 C82.2361607,30.2497368 82.0524623,30.1786842 82.0149836,30.1344737 C81.6330705,29.6836842 82.2683607,27.4697368 82.6478984,26.1468421 C83.3396705,23.7363158 83.9929082,21.4594737 83.071777,19.9839474 C82.8073148,19.56 82.2826131,19.0171053 81.2862607,18.8376316 C79.429218,18.5028947 77.5423508,19.6215789 75.682141,22.1618421 C75.5931951,21.3997368 75.3651557,20.7826316 74.9280803,20.3347368 C74.4218541,19.8163158 73.7213721,19.6031579 72.8451098,19.7002632 C70.5214311,19.9589474 68.9689689,23.2744737 67.3257131,26.7847368 C66.2570426,29.0665789 64.7940541,32.1915789 63.7739475,32.305 C63.1919721,32.37 62.9615574,32.1818421 62.8256311,32.0110526 C61.8010377,30.7247368 62.6355984,26.2381579 63.6913361,22.8371053 C63.9465607,22.1 64.0927803,21.6284211 64.1083525,21.5778947 C64.1160066,21.5531579 64.1178541,21.5281579 64.1233967,21.5031579 C64.1299951,21.4723684 64.138177,21.4418421 64.1418721,21.4107895 C64.1455672,21.3794737 64.1450393,21.3484211 64.1455672,21.3171053 C64.1458311,21.2871053 64.1476787,21.2571053 64.1450393,21.2273684 C64.1426639,21.1957895 64.1360656,21.1652632 64.130523,21.1344737 C64.1249803,21.1057895 64.1210213,21.0771053 64.1131033,21.0492105 C64.1046574,21.0192105 64.0925164,20.9907895 64.0811672,20.9618421 C64.0703459,20.9347368 64.0608443,20.9076316 64.0479115,20.8815789 C64.033923,20.8542105 64.0167672,20.8286842 64.0004033,20.8026316 C63.9845672,20.7778947 63.9697869,20.7526316 63.9518393,20.7294737 C63.9331,20.705 63.9111934,20.6834211 63.8900787,20.6610526 C63.8694918,20.6394737 63.8502246,20.6171053 63.8275262,20.5973684 C63.8040361,20.5768421 63.7776426,20.5594737 63.751777,20.5410526 C63.7272311,20.5236842 63.703741,20.5057895 63.6773475,20.4905263 C63.6493705,20.4744737 63.619018,20.4623684 63.5891934,20.4489474 C63.5664951,20.4389474 63.5459082,20.4260526 63.5221541,20.4176316 C63.5158197,20.4152632 63.5094852,20.415 63.5031508,20.4128947 C63.4965525,20.4107895 63.4912738,20.4071053 63.4846754,20.4052632 C63.4601295,20.3976316 63.4355836,20.3957895 63.4110377,20.3905263 C63.3793656,20.3834211 63.3482213,20.3752632 63.3168131,20.3715789 C63.2856689,20.3678947 63.2550525,20.3684211 63.2241721,20.3678947 C63.1932918,20.3676316 63.1629393,20.3657895 63.1325869,20.3681579 C63.1014426,20.3707895 63.0713541,20.3771053 63.0407377,20.3828947 C63.0117049,20.3881579 62.9826721,20.3923684 62.9541672,20.4002632 C62.9243426,20.4086842 62.8961016,20.4205263 62.8673328,20.4318421 C62.8398836,20.4423684 62.8124344,20.4521053 62.786041,20.4652632 C62.7588557,20.4789474 62.733518,20.4960526 62.7079164,20.5121053 C62.6825787,20.5281579 62.656977,20.5428947 62.633223,20.5610526 C62.6092049,20.5797368 62.5880902,20.6010526 62.5656557,20.6218421 C62.5437492,20.6426316 62.5210508,20.6623684 62.5009918,20.6852632 C62.4809328,20.7081579 62.463777,20.7339474 62.4458295,20.7589474 C62.427882,20.7839474 62.4094066,20.8081579 62.3938344,20.835 C62.3782623,20.8618421 62.3666492,20.8910526 62.3537164,20.9197368 C62.343159,20.9431579 62.3296984,20.9644737 62.3207246,20.9892105 C62.3077918,21.0263158 62.1731852,21.4071053 61.9823607,22.0147368 C61.5653443,23.2328947 60.7738049,25.4031579 59.7584492,27.5257895 C57.1940623,32.8865789 55.4932689,33.3207895 54.8814689,33.2573684 C54.4794967,33.2160526 54.3298459,33.0439474 54.2277033,32.8644737 C53.3057803,31.2407895 55.0841705,25.8402632 56.6413836,22.5242105 L55.3911262,21.2752632 C54.2791705,21.7921053 51.5015246,23.0194737 49.7453049,23.5752632 C49.7888541,22.3694737 49.0743836,21.3360526 47.8668836,20.9526316 C46.488882,20.5152632 45.0818475,21.1 44.5946246,22.3134211 C44.2602197,23.1460526 44.3721279,24.0005263 44.9021082,24.6581579 C45.406223,25.2836842 46.2278508,25.66 47.2587787,25.7605263 C47.241359,25.8221053 47.2231475,25.8855263 47.2044082,25.9507895 L46.9346672,26.8884211 C45.1174787,33.2123684 43.1986754,34.7110526 41.9088279,34.8544737 C41.4004902,34.9110526 40.9193377,34.8394737 40.4490066,34.6915789 C41.3822787,33.3115789 41.9719082,31.5994737 42.1574541,29.9415789 C42.5237951,26.6713158 41.3674984,24.1618421 39.1398918,23.3921053 C36.8980328,22.6173684 34.997441,23.7373684 33.5455377,25.2994737 L33.9707361,23.5147368 C34.0910902,23.0105263 33.7783279,22.5044737 33.2726295,22.3844737 C32.7664033,22.2647368 32.2591213,22.5763158 32.1390311,23.0807895 L25.5351279,50.7902632 C25.4150377,51.2944737 25.7275361,51.8005263 26.2332344,51.9205263 C26.3066082,51.9378947 26.379718,51.9460526 26.4517721,51.9460526 C26.8780262,51.9460526 27.2641623,51.6555263 27.3668328,51.2242105 L32.1651607,31.0905263 C32.4330541,30.4434211 35.2006705,24.0171053 38.5236049,25.1660526 C40.1396754,25.7244737 40.483318,27.9752632 40.286423,29.7331579 C40.1233115,31.1894737 39.5724803,32.7378947 38.7183885,33.8894737 C38.6653377,33.8605263 38.6122869,33.8310526 38.5589721,33.8018421 C37.3731148,33.1494737 36.148723,32.4747368 34.6685787,32.6394737 C33.4808738,32.7715789 32.5887754,33.3286842 32.220323,34.1678947 C31.9175902,34.8578947 32.018941,35.6518421 32.4916475,36.2915789 C33.1008082,37.1163158 34.1742295,37.5644737 35.496541,37.5644737 C35.7237885,37.5644737 35.9581623,37.5510526 36.1988705,37.5244737 C37.3137295,37.4002632 38.2963574,36.9160526 39.1274869,36.1981579 C40.012459,36.5826316 40.9927115,36.8455263 42.1176,36.7202632 C43.8981016,36.5218421 45.4679836,35.1405263 46.7836967,32.6147368 C47.8188475,30.6278947 48.4675984,28.3694737 48.7447295,27.4052632 L49.0142066,26.4681579 C49.1044721,26.1536842 49.1825967,25.8828947 49.2496361,25.6486842 C50.437341,25.4086842 52.4213361,24.6226316 53.9719508,23.9610526 C52.8156541,26.8615789 51.314923,31.5439474 52.5891984,33.7889474 C53.0307607,34.5671053 53.7565803,35.0289474 54.6885328,35.1247368 C56.6215885,35.3242105 58.5306262,33.7147368 60.4847967,30.22 C60.5286098,31.5236842 60.8152426,32.5055263 61.3505016,33.1778947 C61.7332066,33.6586842 62.4146852,34.1955263 63.5498672,34.1955263 C63.687377,34.1955263 63.8314852,34.1876316 63.9827197,34.1707895 C66.0530213,33.9402632 67.4333984,30.9921053 69.0315213,27.5786842 C70.191777,25.1010526 71.7803984,21.7076316 73.053882,21.5660526 C73.2391639,21.5455263 73.4793443,21.5423684 73.5788475,21.6442105 C73.7641295,21.8339474 74.0209377,22.5384211 73.6601393,25.1234211 C73.4735377,26.4602632 72.1142754,30.5181579 71.6062016,31.9689474 C71.4349082,32.4584211 71.6938279,32.9936842 72.1847459,33.1647368 C72.6761918,33.3357895 73.2125066,33.0773684 73.3838,32.5878947 C73.4476721,32.4052632 74.707959,28.7976316 75.2775295,26.5505263 C75.4150393,26.2515789 76.128718,24.7434211 77.1757459,23.3044737 C77.9686049,22.215 79.513677,20.4260526 80.9510639,20.685 C81.2912754,20.7460526 81.4087262,20.8726316 81.4733902,20.9757895 C81.952959,21.7439474 81.3084311,23.9902632 80.8378361,25.6305263 C80.1450082,28.045 79.5466689,30.1305263 80.5770689,31.3463158 C80.9991,31.8439474 81.6114279,32.0947368 82.4021754,32.0947368 C82.5523541,32.0947368 82.7088672,32.0855263 82.8719787,32.0676316 C84.7987,31.8528947 86.4337738,29.9844737 87.6996033,27.8323684 C88.2929279,29.8421053 89.8826049,31.0002632 92.088041,31.0002632 C92.3327082,31.0002632 92.5847656,30.9860526 92.8439492,30.9571053 C94.2116574,30.805 95.3317951,30.1534211 96.2413131,29.2721053 L95.976323,30.4578947 L95.9718361,30.4792105 C95.300123,33.8478947 92.5800148,42.6994737 88.1211066,43.1957895 C86.3089328,43.3981579 84.9573246,42.5581579 84.754359,41.1073684 C84.2729426,37.6671053 89.2441475,35.5578947 92.7032721,34.9797368 C93.2158328,34.8942105 93.5618508,34.41 93.4760721,33.8989474 C93.3900295,33.3876316 92.9062377,33.0426316 92.3918295,33.1284211 C85.2384148,34.3242105 82.4517951,38.2371053 82.8896623,41.3668421 C83.2077033,43.64 85.0953623,45.1034211 87.5890148,45.1034211 C87.8307787,45.1034211 88.0780852,45.0894737 88.3301426,45.0615789 C95.0177131,44.3168421 97.6776443,31.5457895 97.8162098,30.8563158 L97.8162098,30.8563158 Z M35.9898344,35.6586842 C34.8794623,35.7823684 34.2283361,35.4773684 34.0076869,35.1784211 C33.934577,35.0794737 33.9134623,34.9926316 33.9453984,34.9202632 C33.9987131,34.7986842 34.2549934,34.5744737 34.8773508,34.505 C34.9554754,34.4963158 35.0333361,34.4921053 35.1114607,34.4921053 C35.802441,34.4921053 36.4960607,34.82 37.2625262,35.2339474 C36.869,35.4597368 36.4435377,35.6081579 35.9898344,35.6586842 L35.9898344,35.6586842 Z M47.8299328,23.7460526 C47.8206951,23.7834211 47.8067066,23.8365789 47.7866475,23.9107895 C47.0473672,23.9034211 46.5585607,23.7165789 46.3698475,23.4826316 C46.3265623,23.4286842 46.2252115,23.3028947 46.3423984,23.0110526 C46.4371508,22.7747368 46.6965984,22.6894737 46.9510311,22.6894737 C47.0732328,22.6894737 47.1946426,22.7092105 47.2957295,22.7413158 C47.6245918,22.8457895 47.9843344,23.105 47.8299328,23.7460526 L47.8299328,23.7460526 Z" id="Fill-2" sketch:type="MSShapeGroup"></path>
                <path d="M84.0174541,35.0039474 C83.9599164,34.4889474 83.4948639,34.1178947 82.9775525,34.1752632 L32.5256951,39.7928947 C32.0089115,39.8505263 31.6367639,40.3147368 31.6945656,40.83 C31.7481443,41.3097368 32.155659,41.6644737 32.6288934,41.6644737 C32.6637328,41.6644737 32.6991,41.6626316 32.7344672,41.6586842 L83.1863246,36.0407895 C83.7031082,35.9834211 84.0752557,35.5189474 84.0174541,35.0039474" id="Fill-3" sketch:type="MSShapeGroup"></path>
                <path d="M64.4588574,18.3760526 C65.144559,18.2997368 65.631518,17.7334211 65.5460033,17.1113158 C65.4604885,16.4894737 64.8349639,16.0471053 64.1489984,16.1234211 C63.4630328,16.1997368 62.9763377,16.7660526 63.0618525,17.3878947 C63.1473672,18.01 63.7728918,18.4523684 64.4588574,18.3760526" id="Fill-4" sketch:type="MSShapeGroup"></path>
                <path d="M31.5172016,7.95368421 C31.535677,7.95052632 33.3541852,7.64684211 34.2945836,8.65052632 C35.1848344,9.60052632 34.9705197,11.4281579 34.6340033,12.7939474 C34.5099541,13.2973684 34.8184934,13.8057895 35.3234,13.9294737 C35.8288344,14.0528947 36.3382279,13.7452632 36.462277,13.2418421 C37.1155148,10.5918421 36.8452459,8.61210526 35.6593885,7.35736842 C34.0105902,5.61236842 31.2954967,6.08552632 31.1809492,6.10657895 C25.3340098,7.17763158 25.1592852,14.3226316 24.9742672,21.8871053 C24.7517705,30.9744737 24.5216197,40.3713158 15.6333639,42.1297368 C11.9190148,42.8644737 8.64068525,42.4234211 6.15310328,40.8539474 C4.03476557,39.5176316 2.60292131,37.4471053 2.12071311,35.0236842 C1.37562623,31.2797368 3.06929344,26.7565789 8.5483082,25.6726316 C16.442059,24.1110526 18.5382262,31.0639474 18.6261164,31.3692105 C18.7667934,31.8671053 19.2856885,32.1573684 19.7858443,32.0178947 C20.2862639,31.8781579 20.5787033,31.3602632 20.4385541,30.8610526 C20.4126885,30.7692105 19.7863721,28.5902632 17.971823,26.6363158 C16.2752525,24.8089474 13.1988328,22.8389474 8.18223115,23.8313158 C1.73404918,25.1068421 -0.676991803,30.6110526 0.273963934,35.3889474 C1.19694262,40.0278947 5.27261803,44.3576316 12.2418066,44.3571053 C13.4128836,44.3571053 14.6665721,44.2347368 15.9997049,43.9710526 C20.6613148,43.0489474 23.6992,40.2647368 25.2872934,35.4597368 C26.6243852,31.4142105 26.7423639,26.5942105 26.8563836,21.9328947 C27.0295246,14.8581579 27.1789115,8.74842105 31.5172016,7.95368421" id="Fill-5" sketch:type="MSShapeGroup"></path>
                <path d="M69.1085902,55.8115789 C69.3068049,55.6592105 69.5232311,55.3347368 69.5749623,54.9931579 C69.6385705,54.57 69.5010607,54.1697368 69.2487393,53.8736842 C69.0291459,53.6128947 68.722718,53.4226316 68.1346721,53.3344737 L66.3623525,53.0686842 L65.5779393,58.2660526 L67.6110262,58.5707895 C68.2808918,58.6715789 68.7100492,58.5536842 69.0441902,58.3076316 C69.3772754,58.0689474 69.6240541,57.6960526 69.6900377,57.2578947 C69.7774,56.6786842 69.5353721,56.1110526 69.1085902,55.8115789 L69.1085902,55.8115789 Z M67.2330721,54.1102632 L67.9404164,54.2165789 C68.2531787,54.2634211 68.3835623,54.3589474 68.4711885,54.4860526 C68.545618,54.5957895 68.5852082,54.7384211 68.5638295,54.8794737 C68.5427148,55.0205263 68.4627426,55.1452632 68.3590164,55.2284211 C68.2378705,55.3242105 68.0850525,55.3771053 67.7722902,55.3302632 L67.0649459,55.2239474 L67.2330721,54.1102632 L67.2330721,54.1102632 Z M68.6857672,57.0997368 C68.6577902,57.2852632 68.5662049,57.4386842 68.4279033,57.5468421 C68.2801,57.6689474 68.0731754,57.7289474 67.7229344,57.6765789 L66.7178721,57.5257895 L66.9306033,56.115 L67.9359295,56.2657895 C68.2859066,56.3184211 68.4659098,56.4365789 68.5712197,56.5965789 C68.6715148,56.7407895 68.7137443,56.9142105 68.6857672,57.0997368 L68.6857672,57.0997368 Z" id="Fill-6" sketch:type="MSShapeGroup"></path>
                <path d="M76.6959131,56.7978947 C77.0018131,56.5497368 77.2105852,56.1813158 77.2422574,55.7618421 C77.2736656,55.3426316 77.1221672,54.9473684 76.8569131,54.6565789 C76.6122459,54.3973684 76.2781049,54.2215789 75.7373033,54.1810526 L73.8221951,54.0378947 L73.428141,59.2794737 L74.4419131,59.355 L74.6166377,57.0339474 L74.9845623,57.0615789 L76.680077,59.5223684 L77.9340295,59.6163158 L76.1471934,57.0655263 C76.3625639,57.0139474 76.5430951,56.9221053 76.6959131,56.7978947 L76.6959131,56.7978947 Z M75.5253639,56.1984211 L74.6842049,56.1355263 L74.7686639,55.0123684 L75.609559,55.0752632 C75.9025262,55.0971053 76.0252557,55.1739474 76.1078672,55.2781579 C76.1907426,55.3823684 76.2395705,55.5365789 76.2279574,55.6936842 C76.2163443,55.8434211 76.145082,55.9886842 76.0476902,56.0792105 C75.9502984,56.1697368 75.8183311,56.2202632 75.5253639,56.1984211 L75.5253639,56.1984211 Z" id="Fill-7" sketch:type="MSShapeGroup"></path>
                <path d="M83.7646049,54.4118421 C82.138241,54.3986842 81.0067541,55.5986842 80.9946131,57.0923684 C80.9824721,58.5865789 82.0946918,59.8042105 83.7213197,59.8173684 C85.3476836,59.8302632 86.4794344,58.6305263 86.4913115,57.1365789 C86.5034525,55.6423684 85.3912328,54.4247368 83.7646049,54.4118421 L83.7646049,54.4118421 Z M83.7287098,58.9163158 C82.7347328,58.9084211 82.0031066,58.0915789 82.0110246,57.1007895 C82.0189426,56.1097368 82.7635016,55.3047368 83.7574787,55.3126316 C84.7514557,55.3207895 85.482818,56.1373684 85.4749,57.1281579 C85.466982,58.1192105 84.722423,58.9242105 83.7287098,58.9163158 L83.7287098,58.9163158 Z" id="Fill-8" sketch:type="MSShapeGroup"></path>
                <path d="M93.4174787,54.1031579 L89.6236852,54.3623684 L89.685182,55.2610526 L91.0750607,55.1660526 L91.3733066,59.5107895 L92.3873426,59.4413158 L92.0890967,55.0971053 L93.4789754,55.0021053 L93.4174787,54.1031579" id="Fill-9" sketch:type="MSShapeGroup"></path>
                <path d="M100.620513,53.2218421 L100.90609,55.1915789 L98.2968344,55.5673684 L98.0112574,53.5976316 L97.0048754,53.7426316 L97.7589361,58.9457895 L98.765582,58.8007895 L98.4261623,56.4594737 L101.035418,56.0834211 L101.374838,58.425 L102.38122,58.28 L101.627159,53.0768421 L100.620513,53.2218421" id="Fill-10" sketch:type="MSShapeGroup"></path>
            </g>
        </g>
    </g>
</svg>